<?xml version="1.0" encoding="UTF-8"?>
<svg xmlns="http://www.w3.org/2000/svg" version="1.1" viewBox="0 0 1145 1145">
  <defs>
    <style>
      .st0 { fill: #3385ae; }
      .st0, .st1, .st2, .st3 { fill-rule: evenodd; }
      .st1 { fill: #00679a; }
      .st2 { fill: #004d73; }
      .st3 { fill: #66a4c2; }
    </style>
  </defs>
  <path class="st3" d="M231.37,667.28C224.97,387.32,454.31,107.34,689.81,12.58H202.43C98.66,12.58,14.55,96.9,14.55,200.92v287.09h153.65c14.98,0,27.12,12.17,27.12,27.19s-12.14,27.19-27.12,27.19H14.55v151.27h114.04c14.98,0,27.12,12.17,27.12,27.19s-12.14,27.19-27.12,27.19H14.55c-.52,149.39-31.66,363.01,172.83,383.8,34.04-61.58,69.49-122.58,106.25-182.86-17.31-37.48-61.84-147.04-62.26-281.7Z"/>
  <path class="st0" d="M943.81,12.58c-93.46-.96-188.9,28.51-262.27,64.97-64.91,38.02-46.71,158.55-40.18,217.25,6.81,35.99-46.6,47.35-54.71,11.26-8.71-52.1-10.65-111.19-1.41-171.43-175.2,129.48-182.9,179.73-119.76,397.69,6.78,20.84-5.59,40.1-25.37,39.68-10.58,0-20.7-6.05-25.4-16.32-18.28-44.23-35.87-140.74-40.41-193.02-93.97,127.43-111.22,390.21-44.53,527.97C526.05,578.25,756.94,288.61,1017.24,27.52c-22.56-9.61-47.38-14.93-73.44-14.93Z"/>
  <path class="st1" d="M1080.47,526.18c-75.63,116.46-326.58,445.59-459.44,606.26h322.78c103.77,0,187.88-84.32,187.88-188.34v-511.58c-13.68,30.35-30.52,61.78-51.22,93.65Z"/>
  <path class="st1" d="M913.9,655.54c25.51-25.18,66.92-82.08,91.48-118.59-13.85,4.34-22.2,6.55-45.43,6.55h-121.77c-39.1,0-39.1-55.99,0-55.99,53.64,0,115.66.02,138.01.02,36.34-1.89,74.93-17.95,89.48-46.86,65.9-145.28,109.4-281.01.32-382.82-195.83,195.39-375.9,408.13-535.96,633.72,128.26-.32,218.68-.52,288.19-.52,43.33,0,77.68-18.66,95.69-35.51Z"/>
  <path class="st2" d="M564.99,854h205.08c29.58-38.42,59.26-77.36,87.68-115.07-8.63,4.61-14.95,6.19-45.19,7.32-28.44,0-236.03.6-321.39.86-85.9,124.65-166.29,253.59-240.18,385.32h254.17v-116.13h31.53c123.92,0,149.48-49.98,190.04-106.31h-161.75c-15.42,0-27.93-12.53-27.93-28s12.5-28,27.93-28Z"/>
</svg>
