<svg
 xmlns="http://www.w3.org/2000/svg"
 xmlns:xlink="http://www.w3.org/1999/xlink"
 width="1710" height="1710"
 viewBox="0 0 1710 1710">
<g transform="translate(35, 0)">
<path fill-rule="evenodd" fill="currentColor"
 d="M1564,339.957 C1488.5,491.437 1336,528.932 1336,528.932 C1336,528.932 1372.529,530.893 1407.1,525.933 C1444.024,520.895 1481,508.935 1481,508.935 C1481,508.935 1450,567.427 1385,653.916 C1320,740.405 870.1,1228.843 870.1,1228.843 C870.1,1228.843 823.1,1283.336 771.1,1231.842 L563.1,1006.871 L611.1,946.879 L820,1173.85 L1047,921.882 C1047,921.882 979.5,938.38 900,940.88 C820.5,943.379 756.1,931.881 756.1,931.881 C756.1,931.881 965.5,906.384 1108.1,813.896 C1252.5,721.408 1336,594.924 1336,594.924 L1183.1,586.925 L1054,562.928 C1054,562.928 1293.5,533.432 1424,402.949 C1554.5,272.465 1559,80.99 1559,80.99 C1559,80.99 1331.5,44.494 1062,136.983 C792.5,229.471 712,552.929 712,552.929 L695.1,428.945 L696.1,321.959 C696.1,321.959 524.5,431.945 435.1,597.924 C347.5,763.902 346,979.875 346,979.875 C346,979.875 321.5,943.879 301.1,896.885 C282.5,849.891 272.1,804.897 272.1,804.897 C272.1,804.897 228.5,891.886 209.1,1001.872 C191.5,1111.858 207.1,1193.847 207.1,1193.847 L152.1,1280.836 C152.1,1280.836 105.5,1105.359 152.1,927.881 C200.5,750.404 308.1,607.922 308.1,607.922 L314,689.912 L325.1,765.902 C325.1,765.902 332,582.925 467.1,428.945 C603.1,274.965 791,172.978 791,172.978 C791,172.978 779.5,206.974 769,248.968 C758.5,290.963 759.1,316.96 759.1,316.96 C759.1,316.96 811.5,137.483 1080.1,50.994 C1350.5,-35.495 1640,15.998 1640,15.998 C1640,15.998 1639.5,188.476 1564,339.957 ZM1307.1,220.972 C1307.1,220.972 940,461.941 585.1,895.885 C232,1329.83 183.1,1528.804 132.1,1603.795 L0,1709.781 C0,1709.781 93,1406.82 450.1,945.879 C809,484.938 1307.1,220.972 1307.1,220.972 ZM446,1328.83 L446,1162.851 L520.1,1061.864 L520.1,1402.821 L293.1,1402.821 L339,1328.83 L446,1328.83 ZM1192,1328.83 L1314.1,1328.83 L1314.1,819.895 L1389.1,733.906 L1389.1,1403.82 L1115.1,1403.82 L1115.1,1031.868 L1192,950.878 L1192,1328.83 Z"/>
</g>
</svg>